HIERARCHY
ROOT Hips
{
	OFFSET 0.00000 0.00000 0.00000
	CHANNELS 6 Xposition Yposition Zposition Zrotation Yrotation Xrotation 
	JOINT LHipJoint
	{
		OFFSET 0 0 0
		CHANNELS 3 Zrotation Yrotation Xrotation
		JOINT LeftHip
		{
			OFFSET 1.84395 -1.68683 0.74144
			CHANNELS 3 Zrotation Yrotation Xrotation
			JOINT LeftKnee
			{
				OFFSET 2.27037 -6.23779 0.00000
				CHANNELS 3 Zrotation Yrotation Xrotation
				JOINT LeftAnkle
				{
					OFFSET 2.56918 -7.05877 0.00000
					CHANNELS 3 Zrotation Yrotation Xrotation
					JOINT LeftToe
					{
						OFFSET 0.22276 -0.61202 1.71784
						CHANNELS 3 Zrotation Yrotation Xrotation
						End Site
						{
							OFFSET 0.00000 -0.00000 0.91613
						}
					}
				}
			}
		}
	}
	JOINT RHipJoint
	{
		OFFSET 0 0 0
		CHANNELS 3 Zrotation Yrotation Xrotation
		JOINT RightHip
		{
			OFFSET -1.76833 -1.68684 0.74144
			CHANNELS 3 Zrotation Yrotation Xrotation
			JOINT RightKnee
			{
				OFFSET -2.49360 -6.85110 0.00000
				CHANNELS 3 Zrotation Yrotation Xrotation
				JOINT RightAnkle
				{
					OFFSET -2.55538 -7.02085 0.00000
					CHANNELS 3 Zrotation Yrotation Xrotation
					JOINT RightToe
					{
						OFFSET -0.21516 -0.59115 1.68050
						CHANNELS 3 Zrotation Yrotation Xrotation
						End Site
						{
							OFFSET -0.00000 -0.00000 0.89604
						}
					}
				}
			}
		}
	}
	JOINT lowerback
	{
		OFFSET 0 0 0
		CHANNELS 3 Zrotation Yrotation Xrotation
		JOINT Chest
		{
			OFFSET 0.06382 1.72312 -0.19613
			CHANNELS 3 Zrotation Yrotation Xrotation
			JOINT Chest2
			{
				OFFSET -0.00055 1.73507 0.23859
				CHANNELS 3 Zrotation Yrotation Xrotation
				JOINT lowerneck
				{
					OFFSET 0 0 0
					CHANNELS 3 Zrotation Yrotation Xrotation
					JOINT Neck
					{
						OFFSET 0.03638 1.65562 0.09633
						CHANNELS 3 Zrotation Yrotation Xrotation
						JOINT Head
						{
							OFFSET 0.06388 1.62807 -0.32386
							CHANNELS 3 Zrotation Yrotation Xrotation
							End Site
							{
								OFFSET 0.00995 1.67644 -0.12021
							}
						}
					}
				}
				JOINT LeftCollar
				{
					OFFSET 0 0 0
					CHANNELS 3 Zrotation Yrotation Xrotation
					JOINT LeftShoulder
					{
						OFFSET 3.09648 1.42991 0.28122
CHANNELS 3 Zrotation Xrotation Yrotation
						JOINT LeftElbow
						{
OFFSET 0 -5.118780 -0.000000
CHANNELS 3 Zrotation Xrotation Yrotation
							JOINT LeftWrist
							{
OFFSET 0 -3.599710 0.000000
CHANNELS 3 Zrotation Xrotation Yrotation
								JOINT lhand
								{
									OFFSET 0 0 0
CHANNELS 3 Zrotation Xrotation Yrotation
									JOINT LFingers
									{
OFFSET 0 -0.628770 0.000000
CHANNELS 3 Zrotation Xrotation Yrotation
										End Site
										{
OFFSET 0 -0.506930 0.000000
										}
									}
								}
								JOINT LThumb
								{
OFFSET 0 0.000000 0.000000
CHANNELS 3 Zrotation Xrotation Yrotation
									End Site
									{
OFFSET 0 -0.514670 0.514670
									}
								}
							}
						}
					}
				}
				JOINT RightCollar
				{
					OFFSET 0 0 0
					CHANNELS 3 Zrotation Yrotation Xrotation
					JOINT RightShoulder
					{
						OFFSET -3.33565 1.14597 0.05047
CHANNELS 3 Zrotation Xrotation Yrotation
						JOINT RightElbow
						{
OFFSET 0 -5.490200 0.000000
CHANNELS 3 Zrotation Xrotation Yrotation
							JOINT RightWrist
							{
OFFSET 0 -3.206590 -0.000000
CHANNELS 3 Zrotation Xrotation Yrotation
								JOINT rhand
								{
									OFFSET 0 0 0
CHANNELS 3 Zrotation Xrotation Yrotation
									JOINT RFingers
									{
OFFSET 0 -0.691880 0.000000
CHANNELS 3 Zrotation Xrotation Yrotation
										End Site
										{
OFFSET 0 -0.557810 0.000000
										}
									}
								}
								JOINT RThumb
								{
OFFSET 0 0.000000 0.000000
CHANNELS 3 Zrotation Xrotation Yrotation
									End Site
									{
OFFSET 0 -0.566330 0.566330
									}
								}
							}
						}
					}
				}
			}
		}
	}
}
MOTION
Frames: 12
Frame Time: 0.008333333333333333
0.041500 17.459200 8.673800 -8.997900 -4.520800 11.881700 0.000000 0.000000 0.000000 -25.851500 -47.622200 32.770200 0.052600 -1.479700 -4.069800 4.342000 43.360500 -67.538800 2.164800 9.201300 26.427000 0.000000 0.000000 0.000000 25.073700 20.766700 1.182900 -0.020000 -0.914100 2.512500 0.618100 -17.221700 -17.458600 -0.006400 0.516600 -1.419500 5.396900 0.043600 -0.439300 2.471500 0.534700 -10.098000 -0.405700 -0.089700 -10.498400 -11.462400 -12.465900 -3.854000 10.418500 -18.906300 23.540800 3.332100 -8.987900 10.239900 -0.000000 0.000000 0.000000 -3.953000 10.715600 16.415700 9.502700 -15.958000 1.335000 16.194800 32.510800 13.077800 0.000000 0.000000 0.000000 -7.125000 0.000000 0.000000 -7.669400 16.459600 -5.229600 -0.000000 0.000000 0.000000 2.959400 10.124500 -1.801900 -15.982100 -25.496400 -3.638200 4.572000 28.433200 34.681100 0.000000 0.000000 0.000000 7.125000 0.000000 -0.000000 42.509900 59.317300 -16.698300
0.037738 17.465824 8.678567 -8.744386 -4.484381 11.856669 0.000000 0.000000 0.000000 -26.236600 -47.706979 32.861632 0.051468 -1.463947 -4.026322 4.064804 43.673983 -67.327956 2.090195 9.051429 25.956374 0.000000 0.000000 0.000000 26.147280 25.746369 5.287519 -0.000315 -0.107480 0.295333 1.339499 -22.551396 -19.894956 -0.022664 -0.969406 2.664697 5.157379 0.000530 -0.690976 2.413608 0.438477 -10.069104 -0.328599 -0.115340 -10.314564 -11.476640 -12.764737 -5.043590 9.754813 -19.237534 24.846010 2.954909 -9.117583 10.920430 0.000000 0.000000 0.000000 -3.976174 11.087461 14.549288 9.696031 -16.262631 1.388571 16.345238 30.834884 12.854752 0.000000 0.000000 0.000000 -7.125000 0.000000 0.000000 -7.564395 16.676902 -5.120736 0.000000 0.000000 0.000000 2.924424 10.671841 0.413445 -16.334680 -25.972383 -3.791346 1.758487 31.036174 31.819669 0.000000 0.000000 0.000000 7.125000 0.000000 0.000000 36.980756 57.718745 -12.654051
0.028800 17.479815 8.689676 -8.118988 -4.677982 12.263050 0.000000 0.000000 0.000000 -26.822786 -48.273937 32.590085 0.047090 -1.400932 -3.852766 4.368997 43.744896 -67.909026 2.118863 9.109367 26.138019 0.000000 0.000000 0.000000 25.234328 26.205587 4.984372 -0.000085 -0.048428 0.133185 1.390713 -22.815234 -19.894331 -0.066929 -1.669318 4.592682 4.602689 0.117397 -0.889142 2.101228 0.550316 -10.575125 -0.355852 -0.042009 -10.760997 -11.411972 -12.800063 -4.461556 9.699018 -19.371100 25.015626 2.945902 -9.204940 10.876133 0.000000 0.000000 0.000000 -3.671113 12.692201 9.484319 10.253796 -17.135555 1.548849 16.565883 26.346273 11.360467 0.000000 0.000000 0.000000 -7.125000 0.000000 0.000000 -7.408785 18.198178 -4.764441 0.000000 0.000000 0.000000 3.046025 11.776144 2.684050 -16.817356 -26.616122 -4.005336 -0.212397 31.316287 30.055145 0.000000 0.000000 0.000000 7.125000 0.000000 0.000000 33.546077 56.690636 -10.420797
0.028477 17.479913 8.684141 -8.070092 -4.704704 12.203841 0.000000 0.000000 0.000000 -26.899918 -48.224513 32.633649 0.047790 -1.410610 -3.879469 4.407595 43.665159 -67.907454 2.138898 9.149519 26.264240 0.000000 0.000000 0.000000 25.204143 26.157538 5.027611 0.000000 -0.039986 0.109745 1.385524 -22.776894 -19.862853 -0.068803 -1.692411 4.656370 4.652845 0.212334 -0.924528 1.985764 0.671426 -10.617965 -0.517073 0.005479 -10.782181 -11.230939 -12.854404 -4.409705 9.444012 -19.451312 25.322869 2.820315 -9.246429 10.942466 0.000000 0.000000 0.000000 -3.532856 12.770367 9.412843 10.190960 -17.037786 1.530459 16.407794 26.624409 11.394975 0.000000 0.000000 0.000000 -7.125000 0.000000 0.000000 -7.519451 18.173695 -4.840940 0.000000 0.000000 0.000000 3.154286 11.990744 4.624660 -17.686924 -27.754408 -4.402462 -0.018161 28.724543 31.751683 0.000000 0.000000 0.000000 7.125000 0.000000 0.000000 35.229039 58.049533 -12.233178
0.028470 17.481340 8.676431 -8.102069 -4.635912 12.166273 0.000000 0.000000 0.000000 -26.524650 -47.965801 32.215478 0.048220 -1.416983 -3.896998 3.916808 43.837301 -67.215186 2.057142 8.984083 25.745547 0.000000 0.000000 0.000000 25.296980 26.235523 5.136124 0.000000 -0.027652 0.075956 1.408893 -22.932400 -19.960601 -0.072102 -1.732518 4.767070 4.753772 0.118610 -0.845154 2.027891 0.558609 -10.621656 -0.518243 -0.057922 -10.841246 -11.162628 -12.805127 -4.506590 9.397520 -19.361141 25.280714 2.802748 -9.200825 10.920403 0.000000 0.000000 0.000000 -3.543703 12.752965 9.562724 10.130521 -16.943520 1.512764 16.300442 27.053948 11.202545 0.000000 0.000000 0.000000 -7.125000 0.000000 0.000000 -7.595608 18.379093 -4.856053 0.000000 0.000000 0.000000 3.079178 11.718108 5.701466 -17.831943 -27.941473 -4.470263 0.143273 28.679785 30.745829 0.000000 0.000000 0.000000 7.125000 0.000000 0.000000 34.477132 57.189404 -11.190581
0.027962 17.479188 8.669251 -8.137076 -4.594092 12.132845 0.000000 0.000000 0.000000 -26.425806 -47.928727 32.154970 0.048225 -1.417206 -3.897528 3.743592 43.941623 -67.008443 2.005260 8.876982 25.411296 0.000000 0.000000 0.000000 25.353372 26.237303 5.151148 0.000000 -0.029672 0.081503 1.419061 -22.967790 -19.915634 -0.066665 -1.665480 4.582046 4.850492 0.141403 -0.758036 2.008459 0.603285 -10.714496 -0.594935 -0.049944 -11.000089 -11.289698 -12.809923 -4.220333 9.477227 -19.401520 25.270116 2.862715 -9.236842 10.890465 0.000000 0.000000 0.000000 -3.511936 13.111526 8.685066 10.342721 -17.273849 1.575195 16.437273 26.249474 10.953088 0.000000 0.000000 0.000000 -7.125000 0.000000 0.000000 -7.500753 18.626691 -4.752934 0.000000 0.000000 0.000000 3.088725 12.162454 7.148998 -18.515767 -28.812344 -4.795336 -0.018032 27.744033 30.928302 0.000000 0.000000 0.000000 7.125000 0.000000 0.000000 34.484252 57.373820 -11.352291
0.026665 17.480300 8.664861 -8.154556 -4.581712 12.123039 0.000000 0.000000 0.000000 -26.355019 -47.921244 32.098489 0.048035 -1.413983 -3.888644 3.840633 43.803318 -67.053618 2.064346 8.998847 25.791711 0.000000 0.000000 0.000000 25.371194 26.226868 5.106178 -0.000100 -0.046180 0.126951 1.413451 -22.946915 -19.936076 -0.070734 -1.715579 4.720192 4.863353 0.175723 -0.783510 2.045815 0.651487 -10.699052 -0.566391 -0.024450 -10.965097 -11.358157 -12.771654 -4.345909 9.626705 -19.362436 25.239312 2.921611 -9.204390 10.922895 0.000000 0.000000 0.000000 -3.498543 13.044130 8.447970 10.368240 -17.313517 1.582756 16.437168 25.860458 11.435765 0.000000 0.000000 0.000000 -7.125000 0.000000 0.000000 -7.498713 18.129631 -4.834710 0.000000 0.000000 0.000000 2.981273 12.425938 8.517917 -19.220444 -29.691603 -5.139660 -0.247770 26.479719 30.732465 0.000000 0.000000 0.000000 7.125000 0.000000 0.000000 34.093115 57.260568 -11.105525
0.026590 17.481010 8.660431 -8.094501 -4.503738 12.138028 0.000000 0.000000 0.000000 -26.067196 -47.728013 31.638603 0.047753 -1.409641 -3.876761 3.367386 43.940423 -66.352252 1.980719 8.825822 25.252073 0.000000 0.000000 0.000000 25.286944 26.202851 5.045460 -0.000100 -0.057090 0.156787 1.414466 -22.965037 -19.972259 -0.069926 -1.706121 4.694185 4.861803 0.159659 -0.816248 2.059022 0.630508 -10.740975 -0.548768 -0.034690 -10.994966 -11.282622 -12.786836 -4.530942 9.395860 -19.349601 25.502719 2.816804 -9.199563 11.021177 0.000000 0.000000 0.000000 -3.484749 13.033196 8.318731 10.331568 -17.256563 1.571886 16.488906 25.955376 11.101453 0.000000 0.000000 0.000000 -7.125000 0.000000 0.000000 -7.463671 18.470321 -4.755138 0.000000 0.000000 0.000000 2.885762 12.589932 9.307266 -19.707401 -30.288184 -5.382998 -0.159185 25.772778 30.935633 0.000000 0.000000 0.000000 7.125000 0.000000 0.000000 34.356286 57.409671 -11.333932
0.027920 17.480261 8.656921 -8.084568 -4.464687 12.082276 0.000000 0.000000 0.000000 -26.275168 -47.827684 31.896144 0.048240 -1.417565 -3.898474 3.447312 43.996073 -66.543221 1.981223 8.826766 25.254997 0.000000 0.000000 0.000000 25.301413 26.130650 5.113716 0.000000 -0.039317 0.108072 1.416123 -22.972183 -19.968958 -0.076504 -1.784347 4.910030 4.951041 0.134241 -0.810939 2.055397 0.599943 -10.719093 -0.599906 -0.057642 -10.975133 -11.393023 -12.767544 -4.579177 9.464196 -19.333733 25.577348 2.854212 -9.191516 11.077403 0.000000 0.000000 0.000000 -3.429343 12.969608 8.607637 10.243971 -17.120268 1.545969 16.634494 26.198252 11.139061 0.000000 0.000000 0.000000 -7.125000 0.000000 0.000000 -7.361215 18.421706 -4.696711 0.000000 0.000000 0.000000 2.845908 12.405942 9.665622 -19.818606 -30.423203 -5.439173 -0.299884 25.710378 30.723486 0.000000 0.000000 0.000000 7.125000 0.000000 0.000000 34.035674 57.264161 -11.086764
0.027638 17.480568 8.653809 -7.990536 -4.477026 12.068598 0.000000 0.000000 0.000000 -26.164942 -47.680624 31.622900 0.047794 -1.410712 -3.879724 3.277742 43.951912 -66.205181 1.965718 8.794247 25.153926 0.000000 0.000000 0.000000 25.224542 26.269435 5.192183 0.000000 -0.032490 0.089230 1.438645 -23.112638 -20.041985 -0.073238 -1.745748 4.803366 4.903479 0.115375 -0.814290 2.035580 0.568307 -10.682703 -0.592743 -0.068691 -10.931758 -11.324382 -12.791239 -4.786691 9.547948 -19.384060 25.578213 2.850268 -9.189906 11.125928 0.000000 0.000000 0.000000 -3.373264 12.916148 8.765971 10.186551 -17.030847 1.529114 16.571833 26.515744 11.286078 0.000000 0.000000 0.000000 -7.125000 0.000000 0.000000 -7.404809 18.274464 -4.749305 0.000000 0.000000 0.000000 2.816865 12.198391 9.963875 -19.797099 -30.397140 -5.428353 -0.346135 25.681012 30.820025 0.000000 0.000000 0.000000 7.125000 0.000000 0.000000 34.076150 57.353780 -11.178392
0.027974 17.481050 8.651725 -7.958696 -4.505444 12.076405 0.000000 0.000000 0.000000 -25.903227 -47.456237 31.235756 0.047775 -1.410350 -3.878701 3.045447 43.918354 -65.761968 1.916344 8.689637 24.829184 0.000000 0.000000 0.000000 25.170495 26.284718 5.155789 0.000000 -0.035977 0.098829 1.440944 -23.112351 -20.008923 -0.073229 -1.745353 4.802395 4.870808 0.127562 -0.779333 2.016455 0.585157 -10.713452 -0.596083 -0.059904 -10.987091 -11.297261 -12.834575 -4.912849 9.480203 -19.444104 25.733064 2.801954 -9.211993 11.206115 0.000000 0.000000 0.000000 -3.316675 12.978683 8.898323 10.148703 -16.971794 1.518058 16.420101 26.782071 11.182736 0.000000 0.000000 0.000000 -7.125000 0.000000 0.000000 -7.511589 18.391361 -4.799450 0.000000 0.000000 0.000000 2.864465 12.119275 9.524841 -19.461306 -29.987811 -5.259415 0.000223 26.110586 30.715637 0.000000 0.000000 0.000000 7.125000 0.000000 0.000000 34.314480 57.194531 -11.133238
0.030052 17.480848 8.652361 -7.986726 -4.503156 12.082703 0.000000 0.000000 0.000000 -25.967745 -47.529115 31.357103 0.048113 -1.415041 -3.891648 3.096508 43.963876 -65.895816 1.932819 8.724663 24.937838 0.000000 0.000000 0.000000 25.224821 26.393390 5.227339 0.000000 -0.029008 0.079602 1.438900 -23.169747 -20.195735 -0.084796 -1.878044 5.168734 4.926385 0.141855 -0.759945 2.004247 0.610159 -10.767670 -0.641213 -0.055615 -11.060850 -11.253164 -12.833513 -4.794599 9.438641 -19.446827 25.723272 2.789709 -9.219725 11.169889 0.000000 0.000000 0.000000 -3.260770 13.048478 9.211899 10.080319 -16.865053 1.498141 16.334439 27.264681 10.903621 0.000000 0.000000 0.000000 -7.125000 0.000000 0.000000 -7.573413 18.684400 -4.790097 0.000000 0.000000 0.000000 2.912265 12.135483 8.638792 -18.920169 -29.319297 -4.991730 0.599297 26.796538 30.860494 0.000000 0.000000 0.000000 7.125000 0.000000 0.000000 35.010528 57.187817 -11.393006
